<svg width="271" height="239" viewBox="0 0 271 239" fill="none" xmlns="http://www.w3.org/2000/svg">
    <defs>
        <linearGradient id="paint0_linear_15_429" x1="18.0342" y1="0.000366211" x2="283.607" y2="15.5117" gradientUnits="userSpaceOnUse">
            <stop stop-color="#7169E2"/>
            <stop offset="1" stop-color="#7E5BE2"/>
        </linearGradient>
        <linearGradient id="paint1_linear_15_429" x1="0" y1="10.8855" x2="274.577" y2="27.7091" gradientUnits="userSpaceOnUse">
            <stop stop-color="#7169E2"/>
            <stop offset="1" stop-color="#7E5BE2"/>
        </linearGradient>
        <clipPath id="clip0_15_429">
            <rect width="271" height="239" fill="white"/>
        </clipPath>
    </defs>
    <g clip-path="url(#clip0_15_429)">
    <path opacity="0.1" d="M133.823 1.2616C83.5484 8.15936 53.1898 38.1295 33.6169 84.4495C14.0459 130.768 4.16245 191.161 58.3256 221.461C112.489 251.762 150.781 203.435 210.004 198.176C245.772 195.001 279.483 150.388 269.086 99.308C261.472 61.8969 218.941 -10.4177 133.823 1.2616Z" fill="url(#paint0_linear_15_429)"/>
    <path opacity="0.11" d="M230.906 229.153C186.892 256.504 147.178 218.795 95.0633 213.155C42.951 207.517 11.2828 180.989 1.99299 146.302C-7.29677 111.614 15.6715 55.0088 75.4807 27.1491C105.767 13.042 150.699 -4.40583 205.301 35.2169C266.13 79.3603 282.308 197.21 230.906 229.153Z" fill="url(#paint1_linear_15_429)"/>
    <path d="M180.595 122.172C180.595 122.172 186.024 132.212 186.146 138.701C186.268 145.19 186.047 146.561 186.047 146.561L200.053 172.616L159.792 148.986L180.595 122.172Z" fill="#F5A2A8"/>
    <path d="M180.045 121.866C180.045 121.866 183.584 126.885 181.388 132.395C179.191 137.905 180.899 140.72 179.069 142.252C177.239 143.782 176.69 148.803 170.59 150.088C164.49 151.373 152.899 145.498 152.899 145.498L180.045 121.866Z" fill="#F89FB1"/>
    <path d="M191.698 175.248L183.767 174.944L185.474 176.04L179.615 175.125L180.286 175.919L169.428 173.102C169.428 173.102 164.048 165.171 161.856 159.282L148.076 155.534C148.076 155.534 142.046 153.933 138.887 151.408C137.987 150.688 137.322 149.894 137.095 149.043C136.059 145.186 135.387 142.679 137.339 139.616C137.339 139.616 135.385 132.576 137.401 129.823C139.417 127.069 139.844 127.006 139.9 125.784C139.962 124.561 137.828 120.704 142.405 116.11C142.405 116.11 143.744 114.825 143.317 111.332C142.89 107.847 144.415 106.864 147.832 106.56C148.321 106.515 148.914 106.519 149.568 106.572C153.457 106.823 159.543 108.394 159.543 108.394C159.543 108.394 165.156 108.885 167.964 111.885C170.771 114.885 171.316 115.068 170.589 117.147C169.9 119.102 166.962 120.245 166.598 120.381C167.092 120.301 172.104 119.513 174.244 121.376C176.504 123.331 177.961 123.124 178.088 126.107C178.214 129.089 176.687 130.861 171.074 131.044C171.074 131.044 174.49 134.233 174.005 136.129C173.516 138.026 172.354 141.392 167.23 140.169C164.24 139.455 163.33 139.244 163.086 139.186C163.086 139.186 163.815 141.146 163.94 142.128C164.06 143.105 164.914 147.39 157.352 146.288L200.538 173.229L189.805 174.514L191.698 175.248Z" fill="#F89FB1"/>
    <path opacity="0.49" d="M155.828 125.665C152.776 128.601 150.886 128.784 150.886 128.784C150.886 128.784 153.266 133.069 150.094 135.275C146.918 137.474 144.782 137.903 144.782 137.903C144.782 137.903 148.505 140.233 146.433 142.131C144.355 144.028 141.918 146.354 141.918 146.354C141.918 146.354 137.465 149.6 139.293 151.313L138.889 151.41C137.989 150.69 137.324 149.896 137.097 149.045C136.061 145.188 135.389 142.68 137.341 139.618C137.341 139.618 135.387 132.578 137.403 129.825C139.419 127.07 139.846 127.008 139.902 125.785C139.964 124.563 137.83 120.706 142.407 116.111C142.407 116.111 143.746 114.827 143.319 111.334C142.892 107.849 144.417 106.866 147.834 106.562C148.323 106.517 148.916 106.521 149.57 106.574L150.032 106.704C150.032 106.704 156.739 116.966 158.817 117.274L152.595 117.885C152.595 117.887 158.874 122.721 155.828 125.665Z" fill="#F9B6AD"/>
    <path d="M177.296 125.067C177.281 125.089 177.263 125.11 177.248 125.131C177.281 125.088 177.314 125.044 177.349 125.001C177.296 125.069 177.242 125.133 177.188 125.199C177.126 125.258 177.081 125.326 177.056 125.406C177.015 125.482 176.998 125.565 177.002 125.653C176.998 125.741 177.017 125.824 177.056 125.9C177.081 125.98 177.126 126.048 177.188 126.107C177.23 126.14 177.275 126.173 177.318 126.208C177.419 126.266 177.525 126.296 177.642 126.296C177.698 126.288 177.754 126.28 177.812 126.272C177.921 126.241 178.014 126.187 178.096 126.107C178.204 125.98 178.307 125.848 178.406 125.713C178.453 125.639 178.478 125.56 178.482 125.474C178.501 125.388 178.497 125.303 178.47 125.217C178.451 125.133 178.412 125.061 178.356 124.999C178.311 124.929 178.251 124.874 178.175 124.833C178.125 124.812 178.072 124.791 178.022 124.769C177.908 124.738 177.795 124.738 177.681 124.769C177.63 124.791 177.578 124.812 177.527 124.833C177.43 124.894 177.353 124.972 177.296 125.067Z" fill="#9079F5"/>
    <path d="M170.434 113.767C170.43 113.764 170.428 113.76 170.424 113.756C170.457 113.799 170.49 113.843 170.525 113.886C170.505 113.861 170.488 113.834 170.476 113.802C170.498 113.853 170.519 113.906 170.54 113.956C170.529 113.929 170.521 113.9 170.517 113.871C170.525 113.927 170.533 113.985 170.54 114.042C170.538 114.028 170.538 114.013 170.538 113.999C170.542 113.911 170.523 113.828 170.484 113.752C170.459 113.672 170.414 113.604 170.352 113.545C170.294 113.483 170.226 113.438 170.146 113.413C170.071 113.372 169.987 113.355 169.9 113.359C169.844 113.366 169.787 113.374 169.729 113.382C169.621 113.413 169.528 113.468 169.446 113.547C169.413 113.59 169.38 113.635 169.345 113.678C169.287 113.777 169.258 113.886 169.258 114.003C169.258 114.013 169.258 114.022 169.26 114.034C169.266 114.094 169.275 114.157 169.283 114.217C169.283 114.223 169.285 114.227 169.285 114.233C169.289 114.252 169.295 114.274 169.302 114.291C169.324 114.346 169.347 114.4 169.37 114.455C169.372 114.461 169.374 114.464 169.376 114.47C169.38 114.48 169.386 114.488 169.392 114.497C169.398 114.507 169.403 114.517 169.411 114.527C169.415 114.531 169.417 114.534 169.421 114.538C169.458 114.585 169.493 114.634 169.531 114.68C169.59 114.743 169.657 114.788 169.737 114.813C169.813 114.854 169.896 114.871 169.983 114.867C170.071 114.871 170.154 114.852 170.23 114.813C170.309 114.788 170.377 114.743 170.436 114.68C170.468 114.638 170.501 114.593 170.536 114.55C170.595 114.449 170.624 114.342 170.624 114.225C170.616 114.168 170.608 114.11 170.6 114.054C170.567 113.943 170.513 113.847 170.434 113.767Z" fill="#9079F5"/>
    <path d="M179.852 121.732C180.271 122.698 180.876 123.586 181.355 124.524C181.862 125.513 182.341 126.518 182.762 127.546C183.575 129.529 184.223 131.581 184.749 133.659C185.286 135.783 185.69 137.938 185.764 140.132C185.839 142.336 185.587 144.522 185.201 146.689C185.071 147.423 186.19 147.736 186.32 146.999C186.72 144.731 186.994 142.437 186.91 140.132C186.829 137.88 186.421 135.654 185.87 133.476C185.313 131.276 184.605 129.115 183.726 127.024C182.908 125.077 181.965 122.787 180.449 121.271C180.123 120.944 179.689 121.355 179.852 121.732Z" fill="#9079F5"/>
    <path d="M201.017 173.54C200.955 173.291 200.936 173.229 200.81 172.945C200.606 172.487 200.334 172.018 200.07 171.56C199.174 170.007 198.25 168.469 197.35 166.917C194.777 162.482 192.222 158.033 189.795 153.517C189.127 152.275 188.479 151.021 187.829 149.769C187.284 148.718 186.828 147.456 186.048 146.561C185.757 146.226 185.323 146.598 185.379 146.952C185.544 147.997 186.196 149.037 186.656 149.977C187.203 151.097 187.785 152.199 188.369 153.299C189.597 155.614 190.864 157.907 192.15 160.191C194.329 164.059 196.58 167.889 198.867 171.693C199.209 172.261 199.546 172.851 199.956 173.373C200.187 173.667 200.191 173.679 200.425 173.887C200.683 174.121 201.106 173.897 201.017 173.54Z" fill="#9079F5"/>
    <path d="M161.858 159.285C161.636 160.358 162.228 161.686 162.624 162.677C163.148 163.991 163.761 165.276 164.432 166.52C165.158 167.867 165.961 169.172 166.828 170.431C167.277 171.08 167.738 171.72 168.22 172.343C168.664 172.917 169.126 173.632 169.776 173.982C170.071 174.142 170.472 173.877 170.364 173.529C170.156 172.861 169.628 172.314 169.213 171.761C168.765 171.163 168.321 170.564 167.896 169.948C167.028 168.691 166.225 167.386 165.497 166.041C164.844 164.828 164.215 163.584 163.685 162.311C163.27 161.308 163.146 159.965 162.449 159.13C162.284 158.927 161.91 159.034 161.858 159.285Z" fill="#9079F5"/>
    <path d="M178.045 124.065C176.594 120.973 173.024 119.894 169.687 119.591C170.331 119.059 170.87 118.407 171.19 117.597C171.732 116.242 171.44 114.963 170.61 113.867C170.616 113.861 170.622 113.849 170.633 113.843C170.919 113.546 171.743 113.026 171.858 112.934C172.261 112.63 172.673 112.34 173.094 112.066C174.038 111.455 175.051 110.941 176.151 110.695C177.228 110.456 178.435 110.468 179.43 110.981C180.443 111.507 180.705 112.426 180.814 113.495C181.182 117.208 180.173 121.008 178.045 124.065Z" fill="#F89FB1"/>
    <path d="M181.827 111.933C181.041 109.494 178.142 108.968 175.934 109.432C174.642 109.7 173.441 110.3 172.341 111.02C171.817 111.369 171.311 111.747 170.81 112.134C170.486 112.385 170.098 112.63 169.791 112.94C169.65 113.07 169.524 113.22 169.432 113.392C169.347 113.557 169.297 113.699 169.285 113.826C169.279 113.832 169.279 113.832 169.279 113.832C169.25 114.077 169.341 114.272 169.506 114.499V114.505C169.551 114.573 169.609 114.647 169.665 114.723C169.689 114.753 169.706 114.774 169.721 114.803C170.125 115.352 170.286 115.963 170.143 116.643C169.857 118.072 168.6 118.934 167.382 119.54C167.358 119.552 167.337 119.563 167.308 119.575C166.716 119.867 167.028 120.768 167.632 120.774H167.768C171.206 120.825 175.915 121.448 177.139 125.26C177.174 125.357 177.201 125.46 177.23 125.564C177.286 125.782 177.418 125.912 177.577 125.968C177.795 126.111 178.072 126.122 178.289 125.859C178.295 125.859 178.295 125.854 178.301 125.848C178.324 125.819 178.342 125.797 178.363 125.768C178.363 125.768 178.363 125.768 178.363 125.762C178.381 125.745 178.398 125.727 178.404 125.711C178.449 125.661 178.489 125.608 178.53 125.558V125.552C179.225 124.66 179.834 123.706 180.334 122.702C180.511 122.365 180.67 122.022 180.818 121.674C181.136 120.926 181.398 120.147 181.609 119.347C181.916 118.163 182.104 116.937 182.156 115.712C182.207 114.494 182.201 113.111 181.827 111.933ZM178.045 124.064C176.594 120.973 173.024 119.894 169.687 119.591C170.331 119.059 170.87 118.407 171.19 117.597C171.732 116.242 171.441 114.963 170.61 113.867C170.872 113.575 171.743 113.028 171.858 112.936C172.261 112.632 172.673 112.342 173.094 112.068C174.038 111.456 175.051 110.942 176.151 110.697C177.228 110.458 178.435 110.469 179.43 110.983C180.443 111.509 180.705 112.428 180.814 113.497C181.182 117.208 180.173 121.008 178.045 124.064Z" fill="#9079F5"/>
    <path d="M167.975 160.187C163.777 159.256 159.599 158.224 155.453 157.081C151.501 155.993 147.459 154.948 143.633 153.462C140.286 152.162 137.462 149.936 136.784 146.224C136.462 144.462 136.769 142.795 137.427 141.158C137.722 140.424 137.983 139.676 137.863 138.872C137.76 138.187 137.512 137.989 137.403 137.401C137.194 136.256 137.161 135.055 137.138 133.894C137.114 132.658 137.155 131.702 137.809 130.612C138.527 129.414 139.598 128.492 140.337 127.318C141.214 125.928 140.077 124.405 140.017 122.931C139.951 121.329 140.444 119.754 141.325 118.424C141.749 117.782 142.275 117.21 142.869 116.721C143.389 116.291 143.742 115.897 143.955 115.245C144.254 114.332 144.318 113.211 144.07 112.274C143.858 111.474 143.42 110.686 143.608 109.835C143.779 109.06 144.396 108.451 145.042 108.038C146.839 106.887 149.194 106.913 151.233 107.199C153.521 107.52 155.733 108.234 157.977 108.752C160.156 109.255 162.543 109.315 164.58 110.308C166.522 111.254 167.985 112.897 169.44 114.449C170.007 115.052 170.911 114.143 170.346 113.54C169.025 112.13 167.704 110.688 166.053 109.658C164.237 108.525 162.192 108.236 160.125 107.878C155.956 107.154 151.827 105.301 147.524 105.871C145.872 106.089 144.182 106.718 143.108 108.057C142.652 108.626 142.347 109.297 142.291 110.029C142.211 111.044 142.731 111.877 142.892 112.843C143.022 113.627 142.976 114.871 142.39 115.471C141.825 116.049 141.187 116.491 140.678 117.141C140.143 117.827 139.71 118.57 139.382 119.376C138.748 120.932 138.556 122.661 138.913 124.31C139.066 125.015 139.633 125.873 139.297 126.564C139 127.174 138.41 127.695 137.983 128.213C137.07 129.323 136.101 130.573 135.913 132.043C135.762 133.217 135.853 134.443 135.933 135.619C135.973 136.215 136.028 136.811 136.113 137.402C136.187 137.92 136.359 138.284 136.528 138.769C136.843 139.675 136.233 140.636 135.931 141.462C135.64 142.256 135.471 143.089 135.401 143.932C135.094 147.59 136.893 151.009 139.906 153.016C141.594 154.14 143.532 154.839 145.449 155.456C147.857 156.231 150.283 156.955 152.716 157.65C157.648 159.06 162.624 160.317 167.632 161.427C168.439 161.604 168.783 160.364 167.975 160.187Z" fill="#9079F5"/>
    <path d="M153.407 118.212C155.981 117.638 158.665 117.801 161.158 118.662C162.386 119.084 163.533 119.69 164.602 120.428C165.071 120.751 165.537 121.074 166.115 121.15C166.773 121.236 167.374 120.969 167.952 120.685C168.694 120.323 168.044 119.213 167.306 119.575C166.992 119.729 166.608 119.937 166.243 119.879C165.946 119.832 165.671 119.612 165.43 119.446C164.922 119.098 164.413 118.759 163.872 118.465C162.776 117.869 161.598 117.404 160.391 117.089C157.991 116.464 155.483 116.433 153.065 116.974C152.262 117.153 152.601 118.393 153.407 118.212Z" fill="#9079F5"/>
    <path d="M150.981 129.383C155.63 129.383 160.199 130.267 164.784 130.923C167.032 131.245 169.291 131.515 171.561 131.597C173.4 131.663 175.469 131.683 176.961 130.429C178.46 129.169 178.86 127.068 178.464 125.223C178.292 124.415 177.056 124.758 177.228 125.565C177.704 127.783 176.584 129.827 174.297 130.228C173.059 130.446 171.734 130.335 170.488 130.259C169.225 130.183 167.968 130.057 166.712 129.899C161.472 129.241 156.282 128.098 150.977 128.098C150.156 128.098 150.154 129.383 150.981 129.383Z" fill="#9079F5"/>
    <path d="M167.628 120.35C167.91 120.35 167.91 119.912 167.628 119.912C167.349 119.912 167.347 120.35 167.628 120.35Z" fill="#9079F5"/>
    <path d="M167.744 130.828C169.663 131.455 172.106 131.877 173.033 133.939C173.512 135.008 173.608 136.45 173.223 137.566C172.793 138.816 171.63 139.229 170.424 139.369C169.143 139.517 167.814 139.585 166.526 139.519C165.164 139.449 163.889 139.016 162.562 138.748C159.842 138.197 157.042 138.697 154.291 138.456C151.101 138.175 147.954 137.531 144.78 137.13C144.002 137.033 143.817 138.374 144.594 138.51C147.743 139.065 150.963 139.618 154.151 139.875C155.82 140.009 157.465 139.916 159.134 139.863C160.723 139.813 162.18 140.015 163.724 140.377C165.305 140.749 166.846 140.862 168.466 140.757C169.708 140.675 171.048 140.642 172.214 140.165C174.651 139.168 175.037 136.034 174.122 133.816C173.115 131.377 170.234 130.476 167.822 130.244C167.476 130.215 167.442 130.731 167.744 130.828Z" fill="#9079F5"/>
    <path d="M141.635 146.831C141.701 146.716 141.796 146.681 141.92 146.726C142.108 146.72 142.296 146.712 142.483 146.707C142.859 146.695 143.234 146.683 143.61 146.672C144.361 146.648 145.114 146.617 145.865 146.594C147.368 146.545 148.872 146.522 150.377 146.496C153.389 146.446 156.398 146.434 159.407 146.498C161.291 146.539 163.93 146.712 164.915 144.684C166.004 142.443 164 139.933 162.056 138.993C161.46 138.705 160.81 139.435 161.322 139.947C162.263 140.887 163.501 141.436 163.924 142.813C164.331 144.139 163.443 145.007 162.23 145.276C161.045 145.537 159.764 145.4 158.563 145.389C157.104 145.375 155.647 145.377 154.188 145.392C151.221 145.426 148.263 145.542 145.302 145.729C144.549 145.776 143.798 145.831 143.047 145.897C142.611 145.936 141.817 145.846 141.451 146.158C141.191 146.378 141.185 146.973 141.627 146.893C141.66 146.89 141.656 146.847 141.635 146.831Z" fill="#9079F5"/>
    <path d="M149.386 151.196C149.63 150.822 149.78 150.351 149.912 149.927C150.055 149.469 150.16 148.996 150.249 148.527C150.338 148.066 150.406 147.598 150.457 147.131C150.505 146.683 150.614 146.107 150.387 145.694C150.247 145.439 149.865 145.447 149.723 145.694C149.5 146.084 149.568 146.642 149.541 147.08C149.514 147.52 149.469 147.958 149.401 148.395C149.331 148.838 149.236 149.275 149.137 149.713C149.037 150.156 148.901 150.6 148.852 151.052C148.821 151.356 149.244 151.412 149.386 151.196Z" fill="#9079F5"/>
    <path d="M220.205 46.357C217.401 49.8944 214.378 53.5273 213.224 56.543C213.141 56.7552 213.073 56.9635 213.009 57.166C212.995 57.2303 212.976 57.2867 212.962 57.3412C212.921 57.4756 212.888 57.6041 212.865 57.7287C212.848 57.8202 212.832 57.8669 212.832 57.8669V57.8708C212.828 57.8903 212.822 57.9078 212.818 57.9311C212.735 58.3653 212.626 58.8306 212.496 59.3193C210.838 65.7147 205.874 76.0916 204.353 77.8301C204.353 77.8301 203.342 76.7963 201.629 75.381C198.352 72.6651 192.512 68.5474 186.245 67.5175C186.08 67.4903 186.034 67.4436 186.104 67.3832C186.719 66.803 196.695 64.6264 203.758 59.3777C204.171 59.0681 204.58 58.7508 204.97 58.414C206.138 57.4405 207.19 56.362 208.073 55.186C208.164 55.0614 208.257 54.933 208.348 54.8025C208.556 54.5027 208.752 54.199 208.936 53.8855C209.668 52.6629 210.205 51.3351 210.494 49.9022C211.326 45.7982 213.177 43.6022 215.347 42.5372C219.788 40.3489 222.246 43.7793 220.205 46.357Z" fill="#5F46CD"/>
    <path d="M203.823 78.7997C200.854 83.5442 197.119 88.4737 192.496 92.8464C192.193 93.1365 191.881 93.4266 191.568 93.7089C189.822 95.2956 187.956 96.7947 185.963 98.173C185.788 98.0718 184.989 98.615 185.164 98.7221C180.375 101.909 174.881 104.413 168.598 105.731C167.127 104.514 165.767 103.241 164.514 101.923H164.51C159.879 97.0614 156.615 91.5245 154.349 85.8377C151.414 78.4688 150.149 70.8467 149.735 64.0892C149.726 63.984 149.722 63.8808 149.718 63.7854C149.648 62.6329 149.607 61.5076 149.584 60.4154C149.708 60.8865 149.896 61.4492 150.172 62.0527C151.683 65.378 155.901 69.9668 167.533 67.0932C180.298 63.9392 194.296 72.0635 200.779 76.5608C201.881 77.3259 202.763 77.9859 203.388 78.4649C203.392 78.4688 203.398 78.4688 203.398 78.4688C203.557 78.5914 203.699 78.7024 203.823 78.7997Z" fill="#5F46CD"/>
    <path d="M200.777 76.5569C194.252 85.1524 183.936 90.7048 172.333 90.7048C165.775 90.7048 159.632 88.9332 154.347 85.8357C151.412 78.4668 150.147 70.8448 149.733 64.0872C149.724 63.9821 149.72 63.8789 149.716 63.7835C149.646 62.6309 149.605 61.5056 149.582 60.4135C149.706 60.8846 149.894 61.4472 150.17 62.0508C151.681 65.376 155.899 69.9648 167.531 67.0912C180.296 63.9373 194.292 72.0616 200.777 76.5569Z" fill="#957FF7"/>
    <path d="M215.349 42.5392C213.179 43.6041 211.328 45.8002 210.496 49.9042C209.2 56.2997 203.176 60.3355 197.7 62.9619C195.19 64.165 192.582 65.1501 189.945 66.034C188.7 66.4506 187.252 66.7232 186.106 67.3871C186.036 67.4475 186.082 67.4922 186.247 67.5214C192.514 68.5494 198.356 72.667 201.631 75.3848C204.297 71.569 206.235 67.2041 207.254 62.4985C211.6 58.8909 210.395 54.6818 212.475 50.7238C215.098 45.7165 216.018 45.845 215.098 49.143C214.382 51.7167 213.403 55.5949 213.007 57.1719C213.071 56.9694 213.141 56.7611 213.222 56.5489C214.375 53.5332 217.399 49.8983 220.203 46.3628C222.246 43.7793 219.788 40.3489 215.349 42.5392Z" fill="#957FF7"/>
    <path d="M205.843 50.2858C207.069 50.2235 208.082 49.5655 208.49 48.6582C208.88 47.7919 209.227 46.5167 208.967 44.9708C208.472 42.0097 208.565 40.6819 208.565 40.6819C208.565 40.6819 207.671 41.8383 207.126 43.2011C206.844 43.904 206.695 44.636 206.666 45.3816C206.641 46.0689 206.421 47.0929 205.548 48.1462C204.402 49.5343 204.423 50.3578 205.843 50.2858Z" fill="#5F46CD"/>
    <path d="M217.93 55.2931C217.806 56.4379 218.629 57.4678 219.77 57.5943C220.911 57.7189 221.937 56.8934 222.063 55.7467C222.189 54.6 221.365 53.5721 220.224 53.4455C219.081 53.3209 218.055 54.1483 217.93 55.2931Z" fill="#5F46CD"/>
    <path d="M169.138 63.8574C169.138 63.8574 168.514 64.1533 167.462 64.4882C164.548 65.4188 158.378 66.6823 153.355 62.8976C151.723 61.675 150.745 59.7943 149.614 58.4101C149.6 58.3867 149.581 58.3692 149.563 58.3458C149.567 55.9609 149.668 53.7629 149.808 51.8063C153.025 55.3983 157.344 60.0552 168.395 63.6199C168.446 63.6374 168.496 63.653 168.552 63.6666C168.744 63.7328 168.942 63.7971 169.138 63.8574Z" fill="#957FF7"/>
    <path d="M168.592 63.6316C168.592 63.6316 168.579 63.6452 168.552 63.6686C168.431 63.7659 168.051 64.0794 167.463 64.4902C164.549 65.4208 158.379 66.6843 153.356 62.8996C151.724 61.677 150.746 59.7963 149.615 58.4121C149.656 57.0882 149.726 55.8344 149.807 54.6721C153.075 58.3283 156.245 62.9872 168.395 63.6238C168.459 63.6277 168.523 63.6277 168.592 63.6316Z" fill="#5F46CD"/>
    <path d="M167.434 111.844C167.397 111.844 167.359 111.84 167.32 111.83C167.062 111.766 166.905 111.497 166.967 111.233L168.148 105.723C168.21 105.458 168.47 105.295 168.728 105.359C168.986 105.423 169.144 105.692 169.082 105.957L167.9 111.466C167.848 111.692 167.652 111.844 167.434 111.844Z" fill="#9079F5"/>
    <path d="M213.491 57.5243C213.206 57.4464 212.915 57.6099 212.833 57.8961C212.808 57.9954 210.049 67.8135 203.398 78.4687C203.388 78.4823 203.381 78.5018 203.369 78.5154C199.395 84.8778 192.649 92.8717 184.572 98.43C184.574 98.432 184.574 98.4339 184.576 98.4358C179.999 101.452 174.739 103.856 168.74 105.151C167.525 104.136 166.357 103.054 165.261 101.932C165.055 101.718 164.72 101.714 164.51 101.923H164.506C164.297 102.129 164.289 102.47 164.495 102.68C165.676 103.895 166.943 105.059 168.259 106.142C168.356 106.223 168.476 106.266 168.596 106.266C168.635 106.266 168.672 106.258 168.707 106.253C175.172 104.899 180.8 102.283 185.653 99.0063C185.645 99.0024 185.637 98.9965 185.629 98.9927C193.617 93.374 200.309 85.4268 204.271 79.0878C211.029 68.2729 213.834 58.2835 213.862 58.1842C213.943 57.8961 213.776 57.6021 213.491 57.5243Z" fill="#9079F5"/>
    <path d="M161.423 98.3326C161.879 98.9206 162.352 99.5008 162.841 100.073L161.423 98.3326Z" fill="#9079F5"/>
    <path d="M162.843 100.611C162.692 100.611 162.543 100.546 162.438 100.424C161.947 99.8512 161.464 99.2574 161.002 98.6636C160.822 98.43 160.862 98.0932 161.095 97.9122C161.328 97.7311 161.664 97.772 161.844 98.0056C162.296 98.5877 162.768 99.1659 163.247 99.7266C163.439 99.9505 163.414 100.289 163.191 100.482C163.09 100.568 162.966 100.611 162.843 100.611Z" fill="#9079F5"/>
    <path d="M159.262 95.8465C159.09 95.8465 158.919 95.7628 158.816 95.607C151.09 83.881 149.239 70.0037 149.047 60.429C149.031 59.7164 149.026 59.0175 149.029 58.3478C149.035 56.1828 149.119 53.9692 149.278 51.7693C149.681 46.2071 150.446 42.5781 150.454 42.5431C150.516 42.253 150.799 42.0719 151.088 42.1303C151.377 42.1926 151.56 42.4769 151.497 42.7669C151.49 42.802 150.739 46.3648 150.343 51.8472C150.186 54.0218 150.102 56.212 150.099 58.3517C150.095 59.0117 150.102 59.7028 150.116 60.4056C150.304 69.8402 152.122 83.5033 159.708 95.0152C159.871 95.2624 159.804 95.5953 159.557 95.7569C159.466 95.8173 159.363 95.8465 159.262 95.8465Z" fill="#9079F5"/>
    <path d="M165.651 42.5041C164.786 42.3737 163.95 42.2549 163.143 42.1517L165.651 42.5041Z" fill="#9079F5"/>
    <path d="M165.651 43.0395C165.624 43.0395 165.599 43.0376 165.571 43.0337C164.71 42.9032 163.87 42.7845 163.074 42.6813C162.781 42.6424 162.576 42.3737 162.613 42.0817C162.65 41.7877 162.917 41.5813 163.21 41.6183C164.013 41.7234 164.861 41.8422 165.729 41.9726C166.02 42.0174 166.221 42.29 166.177 42.582C166.138 42.8487 165.911 43.0395 165.651 43.0395Z" fill="#9079F5"/>
    <path d="M168.845 43.024C168.895 42.7281 169.177 42.5392 169.466 42.5859C173.841 43.3608 178.509 44.3576 183.338 45.5471C191.693 47.6089 199.44 49.9918 205.152 52.2619C206.654 52.8576 207.899 53.4008 208.939 53.8895C208.755 54.2029 208.557 54.5066 208.351 54.8065C207.368 54.3412 206.188 53.8233 204.762 53.2567C199.091 51.0062 191.394 48.6368 183.086 46.5887C178.274 45.4031 173.633 44.4121 169.281 43.6411C168.992 43.5905 168.794 43.3141 168.845 43.024Z" fill="#9079F5"/>
    <path d="M213.867 58.1668C213.797 58.4568 213.669 58.9689 212.498 59.3193C211.782 59.5354 210.668 59.6892 208.935 59.6892C207.608 59.6892 205.916 59.5977 203.757 59.3797C203.646 59.366 203.532 59.3563 203.417 59.3427C197.306 58.6963 189.337 57.2031 180.988 55.1413C172.634 53.0854 164.887 50.6966 159.171 48.4266C149.912 44.7509 150.306 43.133 150.459 42.5236C150.671 41.6573 151.806 40.5729 159.163 41.1764C159.458 41.2037 159.673 41.4626 159.65 41.7566C159.627 42.0525 159.365 42.2686 159.076 42.2452C153.088 41.7527 151.571 42.4613 151.493 42.7748C151.406 43.1428 152.679 44.6925 159.566 47.4278C165.238 49.6823 172.935 52.0477 181.243 54.0998C189.551 56.1479 197.463 57.6314 203.53 58.2738C204.036 58.3284 204.517 58.3751 204.973 58.4121C210.998 58.9338 212.674 58.2777 212.822 57.9273C212.825 57.9176 212.831 57.9137 212.831 57.9039C212.835 57.8903 212.835 57.8806 212.835 57.867V57.8631C212.919 57.4386 213.05 56.9967 213.225 56.5392C214.061 57.3783 213.937 57.8825 213.867 58.1668Z" fill="#9079F5"/>
    <path d="M170.122 105.639L168.659 112.821L166.218 110.456L167.438 104.823L168.597 105.729L170.122 105.639Z" fill="#9079F5"/>
    <path d="M178.045 124.065C176.594 120.973 173.024 119.894 169.687 119.591C173.969 118.905 178.336 121.191 178.336 121.191C178.336 121.191 179.799 114.523 178.28 112.866C176.873 111.34 171.464 113.501 170.633 113.843C170.919 113.546 171.743 113.026 171.858 112.934C172.261 112.63 172.673 112.34 173.094 112.066C174.038 111.455 175.051 110.941 176.151 110.695C177.228 110.456 178.435 110.468 179.43 110.981C180.443 111.507 180.705 112.426 180.814 113.495C181.182 117.208 180.173 121.008 178.045 124.065Z" fill="#F484B8"/>
    <path d="M84.5805 154.095C84.5805 154.095 79.1518 164.135 79.0296 170.624C78.9073 177.113 79.1285 178.483 79.1285 178.483L65.1221 204.538L105.384 180.907L84.5805 154.095Z" fill="#F5A2A8"/>
    <path d="M85.1296 153.789C85.1296 153.789 81.5906 158.808 83.787 164.318C85.9833 169.828 84.2759 172.643 86.1055 174.175C87.9352 175.705 88.4842 180.726 94.5843 182.011C100.684 183.296 112.275 177.42 112.275 177.42L85.1296 153.789Z" fill="#F89FB1"/>
    <path d="M73.4764 207.171L81.408 206.867L79.7006 207.963L85.56 207.048L84.8887 207.842L95.7462 205.025C95.7462 205.025 101.126 197.094 103.319 191.204L117.098 187.456C117.098 187.456 123.128 185.856 126.287 183.331C127.187 182.611 127.853 181.816 128.08 180.966C129.116 177.109 129.787 174.601 127.835 171.539C127.835 171.539 129.789 164.499 127.773 161.746C125.757 158.991 125.331 158.929 125.274 157.706C125.212 156.484 127.347 152.627 122.77 148.032C122.77 148.032 121.431 146.747 121.858 143.255C122.284 139.77 120.759 138.787 117.343 138.483C116.854 138.438 116.26 138.442 115.606 138.495C111.718 138.746 105.632 140.317 105.632 140.317C105.632 140.317 100.019 140.807 97.211 143.808C94.4035 146.808 93.8583 146.991 94.5859 149.07C95.2747 151.025 98.2122 152.167 98.577 152.304C98.0822 152.224 93.0706 151.435 90.9306 153.299C88.6702 155.253 87.2131 155.047 87.087 158.03C86.9609 161.012 88.4878 162.784 94.1009 162.967C94.1009 162.967 90.6842 166.156 91.1692 168.052C91.6581 169.948 92.8203 173.314 97.9444 172.092C100.934 171.377 101.844 171.167 102.089 171.109C102.089 171.109 101.359 173.069 101.235 174.05C101.115 175.028 100.261 179.313 107.822 178.211L64.6367 205.152L75.37 206.437L73.4764 207.171Z" fill="#F89FB1"/>
    <path opacity="0.49" d="M109.345 157.588C112.397 160.523 114.287 160.706 114.287 160.706C114.287 160.706 111.906 164.992 115.079 167.197C118.255 169.397 120.391 169.826 120.391 169.826C120.391 169.826 116.668 172.156 118.74 174.054C120.818 175.951 123.255 178.277 123.255 178.277C123.255 178.277 127.708 181.522 125.88 183.236L126.283 183.333C127.184 182.613 127.849 181.818 128.076 180.968C129.112 177.111 129.784 174.603 127.832 171.541C127.832 171.541 129.786 164.501 127.77 161.748C125.754 158.993 125.327 158.931 125.271 157.708C125.209 156.486 127.343 152.629 122.766 148.034C122.766 148.034 121.427 146.749 121.854 143.257C122.281 139.772 120.756 138.789 117.339 138.485C116.85 138.44 116.256 138.444 115.603 138.497L115.141 138.627C115.141 138.627 108.433 148.889 106.355 149.197L112.578 149.808C112.58 149.812 106.299 154.646 109.345 157.588Z" fill="#F9B6AD"/>
    <path d="M87.8792 156.992C87.8948 157.013 87.9122 157.035 87.9277 157.056C87.8948 157.013 87.8618 156.969 87.8268 156.926C87.8792 156.994 87.9336 157.058 87.9879 157.124C88.05 157.183 88.0946 157.251 88.1198 157.331C88.1606 157.407 88.178 157.49 88.1741 157.578C88.178 157.665 88.1586 157.749 88.1198 157.825C88.0946 157.905 88.05 157.973 87.9879 158.031C87.9452 158.065 87.9006 158.098 87.8579 158.133C87.7589 158.191 87.6503 158.22 87.5339 158.22C87.4776 158.213 87.4194 158.205 87.3631 158.197C87.2545 158.166 87.1614 158.111 87.0799 158.031C86.9712 157.905 86.8684 157.773 86.7694 157.638C86.7229 157.564 86.6976 157.484 86.6938 157.399C86.6744 157.313 86.6782 157.227 86.7054 157.142C86.7248 157.058 86.7636 156.986 86.8199 156.924C86.8645 156.854 86.9246 156.799 87.0003 156.758C87.0508 156.737 87.1032 156.715 87.1536 156.694C87.2661 156.663 87.3806 156.663 87.4951 156.694C87.5455 156.715 87.5979 156.737 87.6483 156.758C87.7454 156.819 87.821 156.895 87.8792 156.992Z" fill="#9079F5"/>
    <path d="M94.7409 145.69C94.7448 145.686 94.7468 145.682 94.7506 145.679C94.7177 145.721 94.6847 145.766 94.6497 145.809C94.6691 145.784 94.6866 145.756 94.7002 145.725C94.6789 145.776 94.6575 145.828 94.6362 145.879C94.6478 145.852 94.6556 145.823 94.6594 145.793C94.6517 145.85 94.6439 145.906 94.6362 145.965C94.6381 145.951 94.6381 145.936 94.6381 145.922C94.6342 145.834 94.6536 145.751 94.6924 145.675C94.7177 145.595 94.7623 145.527 94.8244 145.468C94.8826 145.406 94.9505 145.361 95.03 145.336C95.1057 145.295 95.1891 145.278 95.2764 145.281C95.3327 145.289 95.389 145.297 95.4472 145.305C95.5558 145.336 95.649 145.39 95.7304 145.47C95.7634 145.513 95.7964 145.558 95.8313 145.601C95.8895 145.702 95.9186 145.809 95.9186 145.926C95.9186 145.936 95.9186 145.945 95.9167 145.955C95.9109 146.015 95.9012 146.078 95.8934 146.138C95.8934 146.144 95.8915 146.148 95.8915 146.154C95.8876 146.173 95.8818 146.195 95.874 146.212C95.8527 146.267 95.8294 146.321 95.8061 146.376C95.8042 146.381 95.8022 146.385 95.8003 146.391C95.7964 146.401 95.7906 146.411 95.7848 146.418C95.779 146.428 95.7731 146.438 95.7654 146.448C95.7615 146.451 95.7596 146.455 95.7557 146.459C95.7188 146.506 95.6839 146.555 95.6451 146.601C95.5869 146.664 95.519 146.708 95.4394 146.734C95.3637 146.775 95.2803 146.792 95.193 146.788C95.1057 146.792 95.0223 146.773 94.9466 146.734C94.867 146.708 94.7991 146.664 94.7409 146.601C94.708 146.559 94.675 146.514 94.64 146.471C94.5818 146.372 94.5527 146.263 94.5527 146.146C94.5605 146.089 94.5683 146.031 94.576 145.974C94.6071 145.865 94.6614 145.772 94.7409 145.69Z" fill="#9079F5"/>
    <path d="M85.3216 153.657C84.9025 154.623 84.2972 155.51 83.8179 156.449C83.3115 157.438 82.8323 158.442 82.4113 159.47C81.5983 161.454 80.9503 163.506 80.4245 165.584C79.887 167.708 79.4835 169.863 79.4097 172.057C79.3341 174.261 79.5863 176.447 79.9724 178.614C80.1024 179.348 78.9829 179.661 78.8529 178.923C78.4532 176.655 78.1796 174.362 78.2631 172.057C78.3445 169.804 78.752 167.581 79.303 165.401C79.8599 163.201 80.568 161.04 81.447 158.949C82.2657 157.002 83.2087 154.712 84.724 153.196C85.0519 152.867 85.4865 153.279 85.3216 153.657Z" fill="#9079F5"/>
    <path d="M64.1577 205.465C64.2198 205.216 64.2392 205.154 64.3653 204.869C64.569 204.412 64.8407 203.943 65.1045 203.485C66.0009 201.932 66.9245 200.394 67.8247 198.842C70.3975 194.407 72.9527 189.958 75.3799 185.442C76.0474 184.199 76.6954 182.946 77.3454 181.694C77.8906 180.642 78.3465 179.381 79.1265 178.485C79.4175 178.15 79.8521 178.522 79.7959 178.877C79.631 179.922 78.979 180.962 78.5192 181.902C77.9721 183.022 77.39 184.124 76.806 185.224C75.5778 187.538 74.3109 189.832 73.0245 192.115C70.8456 195.986 68.595 199.813 66.3075 203.618C65.966 204.186 65.6284 204.776 65.219 205.298C64.9881 205.592 64.9842 205.603 64.7495 205.812C64.4895 206.045 64.0685 205.821 64.1577 205.465Z" fill="#9079F5"/>
    <path d="M103.315 191.208C103.536 192.281 102.944 193.609 102.549 194.6C102.025 195.914 101.412 197.199 100.74 198.443C100.015 199.79 99.2115 201.094 98.3443 202.354C97.8961 203.002 97.4343 203.643 96.9531 204.266C96.5088 204.84 96.047 205.555 95.3971 205.905C95.1022 206.065 94.7005 205.8 94.8092 205.452C95.0168 204.784 95.5445 204.237 95.9597 203.684C96.4079 203.086 96.8522 202.486 97.2771 201.871C98.1444 200.614 98.9477 199.309 99.6733 197.964C100.327 196.751 100.958 195.507 101.485 194.234C101.901 193.231 102.025 191.888 102.721 191.052C102.89 190.85 103.265 190.959 103.315 191.208Z" fill="#9079F5"/>
    <path d="M87.1295 155.987C88.5808 152.896 92.1508 151.817 95.488 151.513C94.8439 150.982 94.3045 150.332 93.9843 149.52C93.443 148.165 93.7341 146.886 94.5645 145.79C94.5587 145.784 94.5528 145.772 94.5412 145.766C94.256 145.468 93.4314 144.948 93.3169 144.857C92.9133 144.553 92.502 144.263 92.081 143.989C91.1361 143.377 90.1214 142.863 89.0232 142.618C87.9464 142.379 86.7396 142.39 85.7442 142.904C84.7314 143.43 84.4695 144.351 84.3608 145.418C83.9922 149.13 84.9992 152.931 87.1295 155.987Z" fill="#F89FB1"/>
    <path d="M83.0188 147.635C83.0693 148.858 83.2575 150.086 83.566 151.27C83.7775 152.07 84.0394 152.847 84.3576 153.597C84.505 153.945 84.6641 154.288 84.8407 154.625C85.3413 155.631 85.9505 156.585 86.6451 157.475V157.481C86.6858 157.531 86.7246 157.584 86.7712 157.634C86.777 157.652 86.7945 157.669 86.812 157.685C86.812 157.691 86.812 157.691 86.812 157.691C86.8352 157.72 86.8527 157.742 86.874 157.771C86.8799 157.777 86.8799 157.782 86.8857 157.782C87.103 158.045 87.3804 158.034 87.5977 157.891C87.7568 157.835 87.8888 157.703 87.945 157.486C87.9741 157.383 88.0013 157.28 88.0362 157.183C89.2605 153.371 93.9694 152.75 97.4075 152.697H97.5433C98.1467 152.691 98.4591 151.788 97.8673 151.498C97.8382 151.486 97.8168 151.475 97.7936 151.463C96.5751 150.857 95.3159 149.995 95.0326 148.566C94.891 147.886 95.0501 147.275 95.4537 146.726C95.4711 146.697 95.4886 146.675 95.5099 146.646C95.5662 146.572 95.6244 146.498 95.669 146.428V146.422C95.8339 146.195 95.9251 146 95.896 145.755C95.896 145.755 95.896 145.755 95.8902 145.749C95.8786 145.622 95.8281 145.48 95.7428 145.315C95.6516 145.143 95.5254 144.995 95.3838 144.863C95.0773 144.555 94.6892 144.308 94.3652 144.057C93.8646 143.668 93.3582 143.292 92.8344 142.943C91.7362 142.223 90.5333 141.623 89.2411 141.355C87.0312 140.891 84.1345 141.417 83.3487 143.856C82.9723 145.034 82.9684 146.417 83.0188 147.635ZM84.3615 145.418C84.4701 144.349 84.732 143.43 85.7448 142.904C86.7421 142.39 87.9489 142.379 89.0238 142.618C90.122 142.864 91.1367 143.377 92.0816 143.989C92.5026 144.263 92.912 144.555 93.3175 144.857C93.432 144.949 94.3031 145.498 94.565 145.788C93.7346 146.886 93.4436 148.165 93.9849 149.518C94.3031 150.33 94.8444 150.98 95.4886 151.512C92.1514 151.815 88.5814 152.894 87.1301 155.985C84.9998 152.931 83.9928 149.13 84.3615 145.418Z" fill="#9079F5"/>
    <path d="M97.198 192.11C101.397 191.179 105.574 190.147 109.72 189.004C113.672 187.916 117.714 186.871 121.54 185.385C124.887 184.085 127.712 181.859 128.389 178.147C128.711 176.385 128.405 174.718 127.747 173.081C127.452 172.347 127.19 171.599 127.31 170.795C127.413 170.11 127.661 169.911 127.77 169.323C127.98 168.179 128.013 166.977 128.036 165.817C128.059 164.581 128.018 163.625 127.365 162.535C126.647 161.337 125.576 160.414 124.836 159.241C123.959 157.85 125.096 156.328 125.157 154.854C125.223 153.252 124.73 151.677 123.849 150.347C123.424 149.705 122.898 149.132 122.304 148.644C121.784 148.213 121.431 147.82 121.218 147.168C120.919 146.255 120.855 145.133 121.103 144.199C121.315 143.399 121.753 142.61 121.565 141.76C121.395 140.985 120.778 140.375 120.131 139.963C118.335 138.812 115.979 138.837 113.94 139.123C111.653 139.445 109.441 140.159 107.196 140.677C105.017 141.179 102.631 141.24 100.593 142.233C98.6513 143.179 97.1883 144.822 95.7332 146.374C95.1666 146.977 94.2625 146.066 94.8271 145.464C96.1484 144.055 97.4697 142.612 99.1208 141.582C100.937 140.449 102.982 140.161 105.048 139.803C109.218 139.079 113.346 137.225 117.65 137.796C119.301 138.014 120.991 138.643 122.066 139.982C122.522 140.551 122.826 141.222 122.883 141.954C122.962 142.969 122.442 143.802 122.281 144.767C122.151 145.552 122.198 146.796 122.784 147.396C123.348 147.974 123.987 148.416 124.495 149.066C125.03 149.751 125.463 150.495 125.791 151.301C126.426 152.857 126.618 154.586 126.261 156.235C126.107 156.939 125.541 157.798 125.876 158.489C126.173 159.098 126.763 159.62 127.188 160.138C128.102 161.248 129.07 162.498 129.258 163.968C129.41 165.142 129.318 166.368 129.239 167.544C129.198 168.14 129.144 168.735 129.058 169.327C128.985 169.845 128.812 170.209 128.643 170.694C128.329 171.599 128.938 172.561 129.241 173.387C129.532 174.181 129.701 175.014 129.77 175.857C130.077 179.515 128.276 182.934 125.265 184.941C123.577 186.065 121.639 186.763 119.722 187.381C117.314 188.155 114.889 188.88 112.456 189.575C107.524 190.984 102.547 192.242 97.5395 193.352C96.7362 193.527 96.3928 192.289 97.198 192.11Z" fill="#9079F5"/>
    <path d="M111.769 150.137C109.194 149.563 106.511 149.726 104.018 150.587C102.789 151.009 101.643 151.615 100.574 152.352C100.104 152.676 99.6385 152.999 99.0604 153.075C98.4026 153.16 97.8012 152.894 97.223 152.609C96.4818 152.247 97.1298 151.138 97.8691 151.5C98.1834 151.654 98.5675 151.862 98.9323 151.803C99.2292 151.757 99.5047 151.537 99.7453 151.371C100.254 151.023 100.762 150.684 101.303 150.39C102.399 149.794 103.577 149.329 104.784 149.014C107.184 148.389 109.693 148.357 112.11 148.899C112.914 149.076 112.574 150.316 111.769 150.137Z" fill="#9079F5"/>
    <path d="M114.194 161.306C109.545 161.306 104.976 162.19 100.391 162.846C98.1425 163.167 95.8841 163.438 93.614 163.52C91.7747 163.586 89.7064 163.605 88.2144 162.352C86.7146 161.092 86.3149 158.991 86.7107 157.146C86.8834 156.338 88.1193 156.678 87.9466 157.488C87.4713 159.706 88.5908 161.75 90.8783 162.151C92.1162 162.369 93.4413 162.258 94.6869 162.182C95.95 162.106 97.2073 161.98 98.4626 161.822C103.703 161.164 108.893 160.021 114.198 160.021C115.018 160.021 115.018 161.306 114.194 161.306Z" fill="#9079F5"/>
    <path d="M97.545 152.273C97.8263 152.273 97.8263 151.835 97.545 151.835C97.2637 151.835 97.2637 152.273 97.545 152.273Z" fill="#9079F5"/>
    <path d="M97.4308 162.753C95.512 163.38 93.0692 163.802 92.1437 165.864C91.6645 166.933 91.5694 168.375 91.9536 169.491C92.3843 170.741 93.5465 171.153 94.7533 171.294C96.0339 171.442 97.3629 171.51 98.6512 171.443C100.013 171.373 101.288 170.941 102.615 170.673C105.335 170.122 108.135 170.622 110.886 170.381C114.076 170.1 117.223 169.456 120.397 169.055C121.175 168.957 121.36 170.299 120.583 170.435C117.434 170.99 114.214 171.543 111.026 171.8C109.357 171.934 107.712 171.841 106.043 171.788C104.454 171.737 102.997 171.94 101.453 172.302C99.8716 172.674 98.3311 172.787 96.711 172.682C95.4693 172.6 94.1286 172.567 92.9625 172.09C90.5256 171.093 90.1395 167.959 91.0553 165.741C92.0622 163.302 94.9435 162.4 97.3552 162.169C97.6966 162.137 97.7335 162.653 97.4308 162.753Z" fill="#9079F5"/>
    <path d="M123.54 178.756C123.474 178.641 123.379 178.606 123.255 178.651C123.067 178.645 122.879 178.637 122.692 178.631C122.316 178.62 121.941 178.608 121.565 178.596C120.814 178.573 120.061 178.542 119.31 178.518C117.807 178.47 116.303 178.446 114.798 178.421C111.786 178.37 108.777 178.359 105.768 178.423C103.884 178.464 101.245 178.637 100.259 176.609C99.171 174.368 101.175 171.858 103.119 170.918C103.715 170.63 104.365 171.36 103.853 171.872C102.912 172.812 101.674 173.361 101.251 174.738C100.843 176.063 101.732 176.932 102.945 177.2C104.13 177.461 105.411 177.325 106.612 177.313C108.069 177.3 109.528 177.302 110.987 177.317C113.954 177.35 116.912 177.467 119.873 177.654C120.626 177.701 121.377 177.755 122.128 177.821C122.564 177.86 123.358 177.771 123.724 178.082C123.984 178.302 123.99 178.898 123.548 178.818C123.515 178.814 123.519 178.772 123.54 178.756Z" fill="#9079F5"/>
    <path d="M115.789 183.119C115.545 182.745 115.395 182.274 115.263 181.85C115.12 181.392 115.015 180.919 114.926 180.45C114.837 179.988 114.769 179.521 114.718 179.054C114.67 178.606 114.561 178.03 114.788 177.617C114.928 177.362 115.31 177.37 115.452 177.617C115.675 178.006 115.607 178.565 115.634 179.003C115.661 179.443 115.706 179.881 115.774 180.317C115.844 180.761 115.939 181.197 116.038 181.635C116.139 182.079 116.274 182.523 116.323 182.975C116.354 183.279 115.929 183.335 115.789 183.119Z" fill="#9079F5"/>
    <path d="M44.9691 78.2818C47.7727 81.8192 50.7956 85.4521 51.95 88.4678C52.0335 88.68 52.1014 88.8883 52.1654 89.0908C52.179 89.1551 52.1984 89.2115 52.212 89.266C52.2527 89.4004 52.2857 89.5289 52.309 89.6535C52.3284 89.745 52.3419 89.7917 52.3419 89.7917V89.7956C52.3458 89.8131 52.3516 89.8326 52.3555 89.8559C52.439 90.2901 52.5476 90.7554 52.6776 91.2441C54.3365 97.6395 59.2996 108.016 60.8207 109.755C60.8207 109.755 61.8316 108.721 63.5448 107.306C66.8218 104.59 72.6618 100.472 78.9288 99.4423C79.0937 99.4151 79.1402 99.3683 79.0704 99.308C78.4553 98.7278 68.4787 96.5512 61.4163 91.3025C61.0031 90.9929 60.5937 90.6756 60.2037 90.3388C59.0357 89.3653 57.9841 88.2868 57.1013 87.1108C57.0101 86.9862 56.917 86.8578 56.8258 86.7273C56.6182 86.4275 56.4222 86.1238 56.2379 85.8103C55.5064 84.5877 54.969 83.2599 54.6799 81.8251C53.8476 77.7211 51.9966 75.525 49.8274 74.4601C45.3882 72.2718 42.93 75.7041 44.9691 78.2818Z" fill="#5F46CD"/>
    <path d="M61.3525 110.723C64.3211 115.467 68.0579 120.397 72.6795 124.769C72.9822 125.059 73.2946 125.349 73.607 125.632C75.3532 127.218 77.2196 128.718 79.2123 130.096C79.3869 129.995 80.1862 130.538 80.0116 130.645C84.8001 133.832 90.2967 136.336 96.5772 137.654C98.0479 136.437 99.408 135.164 100.661 133.846H100.665C105.297 128.984 108.56 123.447 110.826 117.761C113.762 110.392 115.027 102.77 115.44 96.012C115.45 95.9069 115.454 95.8037 115.457 95.7083C115.527 94.5557 115.568 93.4304 115.591 92.3363C115.467 92.8074 115.279 93.3701 115.003 93.9736C113.492 97.2989 109.274 101.888 97.6424 99.0141C84.8777 95.8601 70.879 103.984 64.3967 108.482C63.2947 109.247 62.4119 109.907 61.7872 110.386C61.7833 110.39 61.7774 110.39 61.7774 110.39C61.6183 110.514 61.4767 110.625 61.3525 110.723Z" fill="#5F46CD"/>
    <path d="M64.3984 108.482C70.9234 117.077 81.2395 122.63 92.842 122.63C99.4 122.63 105.543 120.858 110.828 117.761C113.763 110.392 115.028 102.77 115.442 96.012C115.451 95.9069 115.455 95.8037 115.459 95.7083C115.529 94.5557 115.57 93.4304 115.593 92.3363C115.469 92.8074 115.281 93.3701 115.005 93.9736C113.494 97.2989 109.276 101.888 97.6441 99.0141C84.8794 95.8601 70.8826 103.984 64.3984 108.482Z" fill="#957FF7"/>
    <path d="M49.8277 74.462C51.9969 75.527 53.8478 77.723 54.6802 81.827C55.9763 88.2225 62.0006 92.2584 67.4759 94.8847C69.9866 96.0879 72.5942 97.073 75.231 97.9569C76.4766 98.3735 77.924 98.6461 79.0707 99.31C79.1405 99.3703 79.0939 99.4151 78.929 99.4443C72.6621 100.472 66.8201 104.59 63.545 107.308C60.8792 103.492 58.9409 99.1269 57.9223 94.4214C53.5762 90.8138 54.7811 86.6047 52.7012 82.6467C50.078 77.6393 49.1583 77.7678 50.078 81.0658C50.7939 83.6396 51.7737 87.5178 52.1695 89.0947C52.1055 88.8922 52.0357 88.6839 51.9542 88.4717C50.8017 85.456 47.7769 81.8212 44.9733 78.2857C42.9302 75.7041 45.3885 72.2718 49.8277 74.462Z" fill="#957FF7"/>
    <path d="M59.333 82.2087C58.1067 82.1464 57.0939 81.4883 56.6865 80.5811C56.2965 79.7147 55.9492 78.4395 56.2092 76.8937C56.704 73.9325 56.6108 72.6047 56.6108 72.6047C56.6108 72.6047 57.5053 73.7612 58.0505 75.124C58.3318 75.8268 58.4812 76.5588 58.5103 77.3045C58.5355 77.9917 58.7548 79.0158 59.6279 80.069C60.7745 81.4591 60.7532 82.2826 59.333 82.2087Z" fill="#5F46CD"/>
    <path d="M55.0954 67.3345C55.5979 69.3554 54.5774 71.349 52.8137 71.7909C51.052 72.2329 49.2165 70.9518 48.714 68.9329C48.2115 66.912 49.2321 64.9184 50.9957 64.4765C52.7574 64.0346 54.5929 65.3156 55.0954 67.3345Z" fill="#5F46CD"/>
    <path d="M96.0361 95.7822C96.0361 95.7822 96.6609 96.0781 97.7125 96.413C100.627 97.3436 106.797 98.6071 111.82 94.8224C113.452 93.5998 114.429 91.7191 115.561 90.3349C115.574 90.3115 115.594 90.294 115.611 90.2706C115.607 87.8857 115.506 85.6877 115.368 83.7311C112.152 87.3231 107.833 91.9819 96.7812 95.5447C96.7307 95.5622 96.6803 95.5778 96.624 95.5914C96.4319 95.6576 96.234 95.7219 96.0361 95.7822Z" fill="#957FF7"/>
    <path d="M96.583 95.5564C96.583 95.5564 96.5966 95.5701 96.6238 95.5934C96.744 95.6908 97.1243 96.0042 97.7122 96.415C100.626 97.3456 106.796 98.6091 111.82 94.8244C113.451 93.6018 114.429 91.7211 115.56 90.3369C115.52 89.013 115.45 87.7592 115.368 86.5969C112.101 90.2531 108.931 94.912 96.7809 95.5486C96.7169 95.5506 96.6529 95.5506 96.583 95.5564Z" fill="#5F46CD"/>
    <path d="M97.7409 143.767C97.7777 143.767 97.8165 143.763 97.8553 143.753C98.1134 143.689 98.2706 143.42 98.2085 143.156L97.0269 137.646C96.9648 137.381 96.7048 137.218 96.4467 137.282C96.1887 137.346 96.0315 137.615 96.0936 137.879L97.2752 143.389C97.3276 143.615 97.5236 143.767 97.7409 143.767Z" fill="#9079F5"/>
    <path d="M51.6842 89.4491C51.9694 89.3712 52.2605 89.5347 52.342 89.8209C52.3672 89.9202 55.1262 99.7383 61.7772 110.394C61.7869 110.407 61.7947 110.427 61.8063 110.44C65.7799 116.803 72.526 124.796 80.6032 130.355C80.6012 130.357 80.6012 130.359 80.5993 130.361C85.1763 133.376 90.4362 135.781 96.4354 137.073C97.6499 136.059 98.8179 134.977 99.9142 133.855C100.12 133.641 100.455 133.637 100.665 133.846H100.669C100.878 134.052 100.886 134.393 100.681 134.603C99.499 135.818 98.232 136.982 96.9165 138.064C96.8195 138.146 96.6992 138.189 96.5789 138.189C96.5401 138.189 96.5033 138.181 96.4683 138.175C90.0035 136.822 84.375 134.206 79.5225 130.929C79.5302 130.925 79.538 130.919 79.5458 130.915C71.5579 125.297 64.8641 117.35 60.9041 111.011C54.1464 100.196 51.3408 90.2064 51.3136 90.1071C51.2321 89.819 51.399 89.5269 51.6842 89.4491Z" fill="#9079F5"/>
    <path d="M103.749 130.257C103.293 130.845 102.82 131.426 102.331 131.998L103.749 130.257Z" fill="#9079F5"/>
    <path d="M102.331 132.533C102.483 132.533 102.632 132.469 102.737 132.347C103.228 131.774 103.711 131.18 104.173 130.587C104.353 130.353 104.312 130.016 104.08 129.835C103.847 129.654 103.511 129.695 103.331 129.928C102.879 130.511 102.407 131.089 101.928 131.65C101.736 131.873 101.761 132.212 101.984 132.405C102.085 132.491 102.207 132.533 102.331 132.533Z" fill="#9079F5"/>
    <path d="M105.913 127.769C106.086 127.769 106.256 127.686 106.359 127.53C114.085 115.804 115.936 101.926 116.128 92.3518C116.144 91.6392 116.15 90.9403 116.146 90.2706C116.14 88.1057 116.056 85.8921 115.897 83.6921C115.496 78.1299 114.729 74.5009 114.722 74.4659C114.659 74.1758 114.376 73.9928 114.087 74.0531C113.798 74.1154 113.616 74.3997 113.678 74.6898C113.685 74.7248 114.436 78.2876 114.832 83.77C114.989 85.9446 115.073 88.1349 115.077 90.2745C115.08 90.9345 115.073 91.6256 115.059 92.3284C114.871 101.763 113.053 115.426 105.467 126.938C105.304 127.185 105.372 127.518 105.618 127.68C105.709 127.742 105.812 127.769 105.913 127.769Z" fill="#9079F5"/>
    <path d="M99.5244 74.427C100.39 74.2965 101.226 74.1778 102.033 74.0746L99.5244 74.427Z" fill="#9079F5"/>
    <path d="M99.5242 74.9643C99.5513 74.9643 99.5766 74.9624 99.6037 74.9585C100.465 74.828 101.305 74.7112 102.101 74.6061C102.394 74.5672 102.599 74.2985 102.563 74.0065C102.526 73.7125 102.258 73.5061 101.965 73.5431C101.162 73.6482 100.314 73.767 99.4466 73.8974C99.1555 73.9422 98.9537 74.2148 98.9984 74.5068C99.0372 74.7735 99.2642 74.9643 99.5242 74.9643Z" fill="#9079F5"/>
    <path d="M96.3309 74.9468C96.2805 74.6509 95.9992 74.4621 95.7101 74.5088C91.3349 75.2836 86.6667 76.2804 81.8375 77.47C73.4829 79.5317 65.7356 81.9147 60.0236 84.1847C58.5219 84.7805 57.2763 85.3237 56.2363 85.8123C56.4206 86.1258 56.6186 86.4295 56.8242 86.7293C57.8079 86.264 58.9895 85.7461 60.4136 85.1796C66.0849 82.929 73.7817 80.5597 82.0897 78.5116C86.9015 77.3259 91.5425 76.335 95.8944 75.564C96.1835 75.5153 96.3814 75.2369 96.3309 74.9468Z" fill="#9079F5"/>
    <path d="M51.3061 90.0914C51.3759 90.3815 51.504 90.8936 52.6759 91.244C53.3918 91.4601 54.5055 91.6139 56.2381 91.6139C57.5652 91.6139 59.2571 91.5224 61.4165 91.3043C61.5271 91.2907 61.6416 91.281 61.7561 91.2673C67.8678 90.621 75.8363 89.1277 84.185 87.066C92.5396 85.0101 100.287 82.6213 106.003 80.3512C115.262 76.6755 114.868 75.0577 114.714 74.4483C114.503 73.582 113.368 72.4976 106.011 73.1011C105.716 73.1284 105.5 73.3873 105.524 73.6813C105.547 73.9772 105.809 74.1933 106.098 74.1699C112.085 73.6774 113.603 74.386 113.68 74.6995C113.768 75.0674 112.495 76.6171 105.607 79.3525C99.9357 81.607 92.2389 83.9724 83.9308 86.0244C75.6228 88.0725 67.7106 89.556 61.6435 90.1985C61.1372 90.253 60.656 90.2998 60.2 90.3367C54.1756 90.8585 52.4993 90.2024 52.3518 89.852C52.348 89.8422 52.3421 89.8383 52.3421 89.8286C52.3383 89.815 52.3383 89.8052 52.3383 89.7916V89.7877C52.2548 89.3633 52.1229 88.9214 51.9483 88.4639C51.114 89.303 51.2382 89.8052 51.3061 90.0914Z" fill="#9079F5"/>
    <path d="M95.0518 137.562L96.5166 144.746L98.9574 142.379L97.737 136.746L96.5787 137.654L95.0518 137.562Z" fill="#9079F5"/>
    <path d="M87.1305 155.987C88.5818 152.896 92.1518 151.817 95.489 151.513C91.2069 150.828 86.8395 153.114 86.8395 153.114C86.8395 153.114 85.3766 146.446 86.8958 144.789C88.3024 143.262 93.7118 145.423 94.5422 145.766C94.257 145.468 93.4324 144.948 93.3179 144.857C92.9143 144.553 92.503 144.263 92.082 143.989C91.1371 143.377 90.1223 142.863 89.0242 142.618C87.9474 142.379 86.7405 142.39 85.7452 142.904C84.7324 143.43 84.4705 144.351 84.3618 145.418C83.9932 149.13 85.0002 152.931 87.1305 155.987Z" fill="#F484B8"/>
    <path d="M69.1729 198.238C69.1729 198.238 73.0378 201.238 73.548 202.483C74.0583 203.727 86.6018 207.239 86.6018 207.239C86.6018 207.239 75.2263 197.214 69.1729 198.238Z" fill="#E2889D"/>
    <path d="M70.4596 191.897C70.4596 191.897 96.0608 204.305 97.8031 203.984C97.8031 203.984 97.4674 206.618 96.606 207.595C95.7445 208.572 67.4368 199.496 67.6793 196.652C67.9257 193.809 70.4596 191.897 70.4596 191.897Z" fill="#9079F5"/>
    <path d="M77.0656 195.443C77.0656 195.443 95.8062 205.286 97.5504 204.965C97.5504 204.965 97.2148 207.599 96.3533 208.576C95.4919 209.554 74.0428 203.041 74.2872 200.197C74.5317 197.356 77.0656 195.443 77.0656 195.443Z" fill="#F89FB1"/>
    <path d="M77.3996 196.379C77.3996 196.379 96.1402 206.222 97.8844 205.901C97.8844 205.901 97.5488 208.535 96.6873 209.513C95.8259 210.49 74.3767 203.978 74.6212 201.133C74.8657 198.291 77.3996 196.379 77.3996 196.379Z" fill="#9079F5"/>
    <path d="M81.2175 201.338C81.1942 201.801 80.8003 202.157 80.3386 202.134C79.8768 202.111 79.5217 201.715 79.545 201.252C79.5683 200.789 79.9622 200.432 80.4239 200.456C80.8838 200.481 81.2408 200.874 81.2175 201.338Z" fill="#F89FB1"/>
    <path d="M87.2556 204.065C87.2323 204.529 86.8384 204.885 86.3767 204.862C85.9149 204.838 85.5598 204.443 85.5831 203.98C85.6064 203.516 86.0003 203.16 86.462 203.183C86.9219 203.207 87.2789 203.602 87.2556 204.065Z" fill="#F89FB1"/>
    <path d="M93.4177 206.339C93.3944 206.803 93.0006 207.159 92.5388 207.136C92.077 207.112 91.7219 206.717 91.7452 206.254C91.7685 205.79 92.1624 205.434 92.6242 205.457C93.084 205.481 93.441 205.876 93.4177 206.339Z" fill="#F89FB1"/>
</g>
</svg>
