<svg width="159" height="27" viewBox="0 0 159 27" fill="none" xmlns="http://www.w3.org/2000/svg">
<path d="M26.4565 11.132V14.12C26.4565 17.72 25.2925 20.696 22.9645 23.048C20.6605 25.4 17.6245 26.576 13.8565 26.576C9.92045 26.576 6.70445 25.328 4.20845 22.832C1.71245 20.312 0.464453 17.18 0.464453 13.436C0.464453 9.692 1.71245 6.56 4.20845 4.04C6.70445 1.496 9.82445 0.223999 13.5685 0.223999C15.9205 0.223999 18.0685 0.751999 20.0125 1.808C21.9805 2.864 23.5285 4.292 24.6565 6.092L18.5365 9.584C17.5285 8.048 15.9205 7.28 13.7125 7.28C11.9125 7.28 10.4485 7.856 9.32045 9.008C8.21645 10.16 7.66445 11.648 7.66445 13.472C7.66445 15.2 8.18045 16.712 9.21245 18.008C10.2445 19.28 11.8405 19.916 14.0005 19.916C16.4965 19.916 18.1645 19.028 19.0045 17.252H13.6405V11.132H26.4565ZM54.697 22.796C52.129 25.316 48.973 26.576 45.229 26.576C41.485 26.576 38.317 25.316 35.725 22.796C33.157 20.252 31.873 17.12 31.873 13.4C31.873 9.68 33.157 6.56 35.725 4.04C38.317 1.496 41.485 0.223999 45.229 0.223999C48.973 0.223999 52.129 1.496 54.697 4.04C57.289 6.56 58.585 9.68 58.585 13.4C58.585 17.12 57.289 20.252 54.697 22.796ZM40.801 17.792C41.977 18.944 43.453 19.52 45.229 19.52C47.005 19.52 48.469 18.944 49.621 17.792C50.797 16.616 51.385 15.152 51.385 13.4C51.385 11.648 50.797 10.196 49.621 9.044C48.469 7.868 47.005 7.28 45.229 7.28C43.453 7.28 41.977 7.868 40.801 9.044C39.649 10.196 39.073 11.648 39.073 13.4C39.073 15.152 39.649 16.616 40.801 17.792ZM74.9648 0.799998C77.5808 0.799998 79.7648 1.628 81.5168 3.284C83.2688 4.916 84.1448 7.1 84.1448 9.836C84.1448 12.572 83.2688 14.768 81.5168 16.424C79.7648 18.056 77.5808 18.872 74.9648 18.872H72.0848V26H64.8848V0.799998H74.9648ZM74.9648 11.888C75.5168 11.888 75.9848 11.708 76.3688 11.348C76.7528 10.964 76.9448 10.46 76.9448 9.836C76.9448 9.212 76.7528 8.72 76.3688 8.36C75.9848 7.976 75.5168 7.784 74.9648 7.784H72.0848V11.888H74.9648ZM97.0949 19.016H105.375V26H89.8949V0.799998H97.0949V19.016ZM126.426 26L125.562 22.76H118.29L117.426 26H109.686L117.714 0.799998H126.138L134.166 26H126.426ZM119.838 17H124.014L121.926 9.26L119.838 17ZM158.442 0.799998L149.91 16.424V26H142.71V16.424L134.178 0.799998H142.17L146.31 9.656L150.45 0.799998H158.442Z" fill="white"/>
</svg>
