<svg width="94" height="113" viewBox="0 0 94 113" fill="none" xmlns="http://www.w3.org/2000/svg">
<path d="M1.78942 57.5188L15.014 74.0863C27.5075 89.6518 39.2036 103.28 55.9503 112.098C58.3427 113.301 61.1338 113.301 63.5262 112.098C64.2572 111.697 81.8678 102.478 92.5006 87.2468C93.7633 85.4431 94.2284 83.2385 93.8962 81.034C93.4974 78.8294 92.3012 76.9589 90.507 75.6896C88.7127 74.4203 86.5196 73.9527 84.3266 74.2867C82.1336 74.6876 80.2729 75.89 79.0102 77.6938C73.2951 85.8439 64.3237 92.1904 59.7383 95.1298C54.4218 91.7227 38.8714 80.9672 35.9473 68.0739C35.6815 67.1386 35.6151 66.2034 35.5486 65.4685C35.6815 63.264 36.0138 61.193 36.6119 59.5897C37.2764 58.3204 38.2068 57.1847 39.4695 56.2495C43.7226 53.1765 50.1687 53.2433 55.4851 56.4499C58.1433 58.0532 61.3332 58.0532 63.9249 56.4499C69.3742 53.1765 76.1527 53.2433 80.3393 56.5167C83.8614 59.3225 89.1114 58.7212 91.9025 55.1138C93.2316 53.3769 93.8962 51.2391 93.6303 49.0346C93.3645 46.83 92.3012 44.8927 90.5734 43.4898C82.333 37.0766 70.0388 35.6737 59.6718 40.0828C55.8839 38.4795 51.7636 37.611 47.7099 37.5442L60.2699 11.5572C62.4629 6.81407 60.0705 2.60538 56.482 0.86846C55.2858 0.267218 54.0231 0 52.7605 0C50.0358 0 47.3111 1.4029 45.7827 4.60952L32.0929 33.3355L30.6309 17.9704C30.3651 15.031 28.7037 12.6261 26.1784 11.4904C23.5202 10.2879 20.1975 10.5551 17.8051 12.292C15.5456 13.8954 14.4159 16.5007 14.6817 19.5069L17.7386 51.8404L14.283 47.4313C11.4919 43.9574 6.44128 43.423 2.98561 46.2288C1.32423 47.5649 0.260953 49.5022 0.0615873 51.64C-0.204233 53.7777 0.393863 55.8486 1.78942 57.5188Z" fill="white"/>
</svg>
